<?xml version="1.0" encoding="UTF-8"?>
<svg width="732px" height="192px" viewBox="0 0 732 192" version="1.1" xmlns="http://www.w3.org/2000/svg" xmlns:xlink="http://www.w3.org/1999/xlink">
    <title>Veriler</title>
    <g id="Page-1" stroke="none" stroke-width="1" fill="none" fill-rule="evenodd">
        <g id="Veriler" fill="#FFFFFF" fill-rule="nonzero">
            <g id="2021-KURULUŞ-YILI" transform="translate(0.943234, 55.512273)">
                <path d="M69.3775547,31.8477273 L69.3775547,27.0920455 L55.6934638,27.0920455 L55.6934638,26.8772727 L61.1088047,21.3698864 C63.144032,19.40625 64.7267025,17.7340909 65.8568161,16.3534091 C66.9869297,14.9727273 67.7769866,13.7147727 68.2269866,12.5795455 C68.6769866,11.4443182 68.9019866,10.2886364 68.9019866,9.1125 C68.9019866,7.35340909 68.459657,5.78863636 67.5749979,4.41818182 C66.6903388,3.04772727 65.450282,1.96875 63.8548275,1.18125 C62.2593729,0.39375 60.4082366,1.42108547e-14 58.3014184,1.42108547e-14 C56.225282,1.42108547e-14 54.3869297,0.403977273 52.7863616,1.21193182 C51.1857934,2.01988636 49.9303956,3.16022727 49.0201684,4.63295455 C48.1099411,6.10568182 47.6548275,7.83920455 47.6548275,9.83352273 L47.6548275,9.83352273 L53.0701684,9.83352273 C53.0701684,8.75965909 53.2823843,7.83409091 53.7068161,7.05681818 C54.1312479,6.27954545 54.7321002,5.67869318 55.5093729,5.25426136 C56.2866456,4.82982955 57.1917593,4.61761364 58.2247138,4.61761364 C59.2269866,4.61761364 60.1218729,4.81193182 60.9093729,5.20056818 C61.6968729,5.58920455 62.3156229,6.13892045 62.7656229,6.84971591 C63.2156229,7.56051136 63.4406229,8.41193182 63.4406229,9.40397727 C63.4406229,10.2732955 63.2667593,11.0914773 62.919032,11.8585227 C62.5713047,12.6255682 62.0497138,13.4181818 61.3542593,14.2363636 C60.6588047,15.0545455 59.7894866,15.9903409 58.7463047,17.04375 L58.7463047,17.04375 L47.8389184,27.7363636 L47.8389184,31.8477273 L69.3775547,31.8477273 Z M86.3047573,32.4460227 C88.8308936,32.4460227 90.9965186,31.8068182 92.8016323,30.5284091 C94.6067459,29.25 95.9925414,27.3963068 96.9590186,24.9673295 C97.9254959,22.5383523 98.4087345,19.6056818 98.4087345,16.1693182 C98.4087345,12.7534091 97.9254959,9.83863636 96.9590186,7.425 C95.9925414,5.01136364 94.6041891,3.17045455 92.7939618,1.90227273 C90.9837345,0.634090909 88.8206664,1.42108547e-14 86.3047573,1.42108547e-14 C83.7888482,1.42108547e-14 81.6283368,0.634090909 79.8232232,1.90227273 C78.0181095,3.17045455 76.6323141,5.00880682 75.6658368,7.41732955 C74.6993595,9.82585227 74.2110073,12.7431818 74.20078,16.1693182 C74.20078,19.5954545 74.6840186,22.5230114 75.6504959,24.9519886 C76.6169732,27.3809659 78.0027686,29.2372159 79.8078823,30.5207386 C81.6129959,31.8042614 83.7786209,32.4460227 86.3047573,32.4460227 Z M86.3047573,27.6443182 C84.9956664,27.6443182 83.8655527,27.2122159 82.9144164,26.3480114 C81.96328,25.4838068 81.2294732,24.1977273 80.7129959,22.4897727 C80.1965186,20.7818182 79.9433936,18.675 79.9536209,16.1693182 C79.9638482,12.4261364 80.5365755,9.58551136 81.6718027,7.64744318 C82.80703,5.709375 84.3513482,4.74034091 86.3047573,4.74034091 C87.6036209,4.74034091 88.7286209,5.17244318 89.6797573,6.03664773 C90.6308936,6.90085227 91.3672573,8.18181818 91.8888482,9.87954545 C92.4104391,11.5772727 92.6712345,13.6738636 92.6712345,16.1693182 C92.6712345,19.9431818 92.1010641,22.7991477 90.9607232,24.7372159 C89.8203823,26.6752841 88.2683936,27.6443182 86.3047573,27.6443182 Z M125.0468,31.8477273 L125.0468,27.0920455 L111.362709,27.0920455 L111.362709,26.8772727 L116.77805,21.3698864 C118.813277,19.40625 120.395948,17.7340909 121.526061,16.3534091 C122.656175,14.9727273 123.446232,13.7147727 123.896232,12.5795455 C124.346232,11.4443182 124.571232,10.2886364 124.571232,9.1125 C124.571232,7.35340909 124.128902,5.78863636 123.244243,4.41818182 C122.359584,3.04772727 121.119527,1.96875 119.524073,1.18125 C117.928618,0.39375 116.077482,1.42108547e-14 113.970664,1.42108547e-14 C111.894527,1.42108547e-14 110.056175,0.403977273 108.455607,1.21193182 C106.855039,2.01988636 105.599641,3.16022727 104.689414,4.63295455 C103.779186,6.10568182 103.324073,7.83920455 103.324073,9.83352273 L103.324073,9.83352273 L108.739414,9.83352273 C108.739414,8.75965909 108.951629,7.83409091 109.376061,7.05681818 C109.800493,6.27954545 110.401345,5.67869318 111.178618,5.25426136 C111.955891,4.82982955 112.861004,4.61761364 113.893959,4.61761364 C114.896232,4.61761364 115.791118,4.81193182 116.578618,5.20056818 C117.366118,5.58920455 117.984868,6.13892045 118.434868,6.84971591 C118.884868,7.56051136 119.109868,8.41193182 119.109868,9.40397727 C119.109868,10.2732955 118.936004,11.0914773 118.588277,11.8585227 C118.24055,12.6255682 117.718959,13.4181818 117.023504,14.2363636 C116.32805,15.0545455 115.458732,15.9903409 114.41555,17.04375 L114.41555,17.04375 L103.508164,27.7363636 L103.508164,31.8477273 L125.0468,31.8477273 Z M143.139912,31.8477273 L143.139912,0.429545455 L137.724571,0.429545455 L129.916048,5.44602273 L129.916048,10.6619318 L137.264343,5.96761364 L137.448434,5.96761364 L137.448434,31.8477273 L143.139912,31.8477273 Z" id="2021"></path>
                <path d="M4.42840909,84.2477273 L4.42840909,78.2954545 L6.60681818,75.6363636 L12.3443182,84.2477273 L17.6420455,84.2477273 L9.77727273,72.6806818 L17.55,63.3022727 L12.2420455,63.3022727 L4.70454545,72.5375 L4.42840909,72.5375 L4.42840909,63.3022727 L1.56319402e-13,63.3022727 L1.56319402e-13,84.2477273 L4.42840909,84.2477273 Z M28.5401833,84.5443182 C30.2720015,84.5443182 31.789047,84.2255682 33.0913197,83.5880682 C34.3935924,82.9505682 35.407797,82.0590909 36.1339333,80.9136364 C36.8600697,79.7681818 37.2231379,78.4318182 37.2231379,76.9045455 L37.2231379,76.9045455 L37.2231379,63.3022727 L32.7947288,63.3022727 L32.7947288,76.5261364 C32.7947288,77.3238636 32.6191606,78.0329545 32.2680242,78.6534091 C31.9168879,79.2738636 31.4225697,79.7613636 30.7850697,80.1159091 C30.1475697,80.4704545 29.3992742,80.6477273 28.5401833,80.6477273 C27.6879106,80.6477273 26.9413197,80.4704545 26.3004106,80.1159091 C25.6595015,79.7613636 25.1634788,79.2738636 24.8123424,78.6534091 C24.4612061,78.0329545 24.2856379,77.3238636 24.2856379,76.5261364 L24.2856379,76.5261364 L24.2856379,63.3022727 L19.8572288,63.3022727 L19.8572288,76.9045455 C19.8572288,78.4318182 20.2185924,79.7681818 20.9413197,80.9136364 C21.664047,82.0590909 22.676547,82.9505682 23.9788197,83.5880682 C25.2810924,84.2255682 26.801547,84.5443182 28.5401833,84.5443182 Z M45.2965609,84.2477273 L45.2957662,76.8237273 L48.5287662,76.8237273 L52.4965609,84.2477273 L57.3851973,84.2477273 L52.9407662,76.1117273 L53.1357655,76.025 C54.1763905,75.5375 54.9921457,74.853776 55.5830311,73.9738281 L55.7386064,73.7289773 C56.3386064,72.7301136 56.6386064,71.5352273 56.6386064,70.1443182 C56.6386064,68.7602273 56.34372,67.5551136 55.7539473,66.5289773 C55.1641746,65.5028409 54.3084928,64.7085227 53.1869019,64.1460227 C52.0653109,63.5835227 50.7136064,63.3022727 49.1317882,63.3022727 L49.1317882,63.3022727 L40.8681519,63.3022727 L40.8681519,84.2477273 L45.2965609,84.2477273 Z M45.2965609,66.9227273 L48.2829246,66.9227273 C49.1351973,66.9227273 49.8425837,67.0471591 50.4050837,67.2960227 C50.9675837,67.5448864 51.3869019,67.9079545 51.6630382,68.3852273 C51.9391746,68.8625 52.0772428,69.4488636 52.0772428,70.1443182 C52.0772428,70.8329545 51.9391746,71.4090909 51.6630382,71.8727273 C51.3869019,72.3363636 50.9692882,72.6840909 50.4101973,72.9159091 C49.8511064,73.1477273 49.1488337,73.2636364 48.3033791,73.2636364 L48.3033791,73.2636364 L45.2957662,73.2637273 L45.2965609,66.9227273 Z M68.4510864,84.5443182 C70.1829046,84.5443182 71.6999501,84.2255682 73.0022228,83.5880682 C74.3044955,82.9505682 75.3187001,82.0590909 76.0448364,80.9136364 C76.7709728,79.7681818 77.134041,78.4318182 77.134041,76.9045455 L77.134041,76.9045455 L77.134041,63.3022727 L72.7056319,63.3022727 L72.7056319,76.5261364 C72.7056319,77.3238636 72.5300637,78.0329545 72.1789273,78.6534091 C71.827791,79.2738636 71.3334728,79.7613636 70.6959728,80.1159091 C70.0584728,80.4704545 69.3101773,80.6477273 68.4510864,80.6477273 C67.5988137,80.6477273 66.8522228,80.4704545 66.2113137,80.1159091 C65.5704046,79.7613636 65.0743819,79.2738636 64.7232455,78.6534091 C64.3721092,78.0329545 64.196541,77.3238636 64.196541,76.5261364 L64.196541,76.5261364 L64.196541,63.3022727 L59.7681319,63.3022727 L59.7681319,76.9045455 C59.7681319,78.4318182 60.1294955,79.7681818 60.8522228,80.9136364 C61.5749501,82.0590909 62.5874501,82.9505682 63.8897228,83.5880682 C65.1919955,84.2255682 66.7124501,84.5443182 68.4510864,84.5443182 Z M94.1870095,84.2477273 L94.1870095,80.5965909 L85.207464,80.5965909 L85.207464,63.3022727 L80.779055,63.3022727 L80.779055,84.2477273 L94.1870095,84.2477273 Z M105.809276,84.5443182 C107.541094,84.5443182 109.05814,84.2255682 110.360413,83.5880682 C111.662685,82.9505682 112.67689,82.0590909 113.403026,80.9136364 C114.129163,79.7681818 114.492231,78.4318182 114.492231,76.9045455 L114.492231,76.9045455 L114.492231,63.3022727 L110.063822,63.3022727 L110.063822,76.5261364 C110.063822,77.3238636 109.888254,78.0329545 109.537117,78.6534091 C109.185981,79.2738636 108.691663,79.7613636 108.054163,80.1159091 C107.416663,80.4704545 106.668367,80.6477273 105.809276,80.6477273 C104.957004,80.6477273 104.210413,80.4704545 103.569504,80.1159091 C102.928594,79.7613636 102.432572,79.2738636 102.081435,78.6534091 C101.730299,78.0329545 101.554731,77.3238636 101.554731,76.5261364 L101.554731,76.5261364 L101.554731,63.3022727 L97.1263217,63.3022727 L97.1263217,76.9045455 C97.1263217,78.4318182 97.4876853,79.7681818 98.2104126,80.9136364 C98.9331399,82.0590909 99.9456399,82.9505682 101.247913,83.5880682 C102.550185,84.2255682 104.07064,84.5443182 105.809276,84.5443182 Z M123.619063,90.875 C125.330427,90.875 126.659972,90.5732955 127.607699,89.9698864 C128.555427,89.3664773 129.025881,88.5568182 129.019063,87.5409091 C129.012245,86.825 128.78554,86.2590909 128.338949,85.8431818 C127.892358,85.4272727 127.317927,85.1647727 126.615654,85.0556818 L126.615654,85.0556818 L126.712766,84.5247273 L126.731421,84.5228693 C127.94804,84.4585227 129.025633,84.2493963 129.964198,83.8954901 L130.271904,83.7721591 C131.482131,83.2573864 132.409404,82.53125 133.053722,81.59375 C133.69804,80.65625 134.023608,79.5465909 134.030427,78.2647727 C134.023608,77.3920455 133.865086,76.6181818 133.554858,75.9431818 C133.244631,75.2681818 132.809972,74.6818182 132.250881,74.1840909 C131.69179,73.6863636 131.030427,73.2670455 130.26679,72.9261364 C129.503154,72.5852273 128.664517,72.3125 127.750881,72.1079545 L127.750881,72.1079545 L125.869063,71.6579545 C125.412245,71.5556818 124.982699,71.43125 124.580427,71.2846591 C124.178154,71.1380682 123.823608,70.9642045 123.51679,70.7630682 C123.209972,70.5619318 122.969631,70.3215909 122.795767,70.0420455 C122.621904,69.7625 122.54179,69.4352273 122.555427,69.0602273 C122.555427,68.6102273 122.686677,68.2079545 122.949177,67.8534091 C123.211677,67.4988636 123.59179,67.2210227 124.089517,67.0198864 C124.587245,66.81875 125.197472,66.7181818 125.920199,66.7181818 C126.983836,66.7181818 127.825881,66.9465909 128.446336,67.4034091 C129.06679,67.8602273 129.417927,68.5011364 129.499745,69.3261364 L129.499745,69.3261364 L133.744063,69.3261364 C133.723608,68.0784091 133.389517,66.9806818 132.74179,66.0329545 C132.094063,65.0852273 131.188949,64.3454545 130.026449,63.8136364 C128.863949,63.2818182 127.505427,63.0159091 125.950881,63.0159091 C124.423608,63.0159091 123.059972,63.2818182 121.859972,63.8136364 C120.659972,64.3454545 119.717358,65.0852273 119.032131,66.0329545 C118.346904,66.9806818 118.007699,68.0886364 118.014517,69.3568182 C118.007699,70.9045455 118.515654,72.1352273 119.538381,73.0488636 C120.561108,73.9625 121.955427,74.6340909 123.721336,75.0636364 L123.721336,75.0636364 L126.002017,75.6363636 C126.765654,75.8204545 127.411677,76.025 127.940086,76.25 C128.468495,76.475 128.870767,76.7477273 129.146904,77.0681818 C129.42304,77.3886364 129.561108,77.7840909 129.561108,78.2545455 C129.561108,78.7590909 129.407699,79.2056818 129.100881,79.5943182 C128.794063,79.9829545 128.362813,80.2863636 127.807131,80.5045455 C127.251449,80.7227273 126.598608,80.8318182 125.848608,80.8318182 C125.084972,80.8318182 124.401449,80.7142045 123.79804,80.4789773 C123.194631,80.24375 122.713949,79.8926136 122.355995,79.4255682 C121.99804,78.9585227 121.795199,78.3738636 121.747472,77.6715909 L121.747472,77.6715909 L117.462245,77.6715909 C117.496336,79.1784091 117.862813,80.4414773 118.561677,81.4607955 C119.26054,82.4801136 120.23554,83.2488636 121.486677,83.7670455 C122.425029,84.1556818 123.487067,84.3985795 124.672792,84.4957386 L124.699766,84.4987273 L124.314517,86.2420455 C124.944821,86.3208333 125.426975,86.4507997 125.760982,86.6319444 L125.87929,86.7022727 C126.213381,86.9204545 126.373608,87.2375 126.359972,87.6534091 C126.339517,88.0897727 126.08554,88.4119318 125.59804,88.6198864 C125.11054,88.8278409 124.437245,88.9318182 123.578154,88.9318182 L123.578154,88.9318182 L123.619063,90.875 Z M154.482965,84.2477273 L154.482965,76.8431818 L162.122737,63.3022727 L157.16251,63.3022727 L152.386374,72.3227273 L152.181828,72.3227273 L147.405692,63.3022727 L142.445465,63.3022727 L150.085237,76.8431818 L150.085237,84.2477273 L154.482965,84.2477273 Z M168.964713,84.2477273 L168.964713,63.3022727 L164.536304,63.3022727 L164.536304,84.2477273 L168.964713,84.2477273 Z M186.019694,84.2477273 L186.019694,80.5965909 L177.040148,80.5965909 L177.040148,63.3022727 L172.611739,63.3022727 L172.611739,84.2477273 L186.019694,84.2477273 Z M193.387415,84.2477273 L193.387415,63.3022727 L188.959006,63.3022727 L188.959006,84.2477273 L193.387415,84.2477273 Z" id="KURULUŞYILI" fill-opacity="0.84"></path>
            </g>
            <g id="20.-314-TAKIM-ARASIN" transform="translate(295.663900, 37.512273)">
                <path d="M65.5944126,31.8477273 L65.5944126,27.0920455 L51.9103217,27.0920455 L51.9103217,26.8772727 L57.3256626,21.3698864 C59.3608899,19.40625 60.9435604,17.7340909 62.073674,16.3534091 C63.2037876,14.9727273 63.9938445,13.7147727 64.4438445,12.5795455 C64.8938445,11.4443182 65.1188445,10.2886364 65.1188445,9.1125 C65.1188445,7.35340909 64.6765149,5.78863636 63.7918558,4.41818182 C62.9071967,3.04772727 61.6671399,1.96875 60.0716854,1.18125 C58.4762308,0.39375 56.6250945,-4.26325641e-14 54.5182763,-4.26325641e-14 C52.4421399,-4.26325641e-14 50.6037876,0.403977273 49.0032195,1.21193182 C47.4026513,2.01988636 46.1472536,3.16022727 45.2370263,4.63295455 C44.326799,6.10568182 43.8716854,7.83920455 43.8716854,9.83352273 L43.8716854,9.83352273 L49.2870263,9.83352273 C49.2870263,8.75965909 49.4992422,7.83409091 49.923674,7.05681818 C50.3481058,6.27954545 50.9489581,5.67869318 51.7262308,5.25426136 C52.5035036,4.82982955 53.4086172,4.61761364 54.4415717,4.61761364 C55.4438445,4.61761364 56.3387308,4.81193182 57.1262308,5.20056818 C57.9137308,5.58920455 58.5324808,6.13892045 58.9824808,6.84971591 C59.4324808,7.56051136 59.6574808,8.41193182 59.6574808,9.40397727 C59.6574808,10.2732955 59.4836172,11.0914773 59.1358899,11.8585227 C58.7881626,12.6255682 58.2665717,13.4181818 57.5711172,14.2363636 C56.8756626,15.0545455 56.0063445,15.9903409 54.9631626,17.04375 L54.9631626,17.04375 L44.0557763,27.7363636 L44.0557763,31.8477273 L65.5944126,31.8477273 Z M82.5216152,32.4460227 C85.0477515,32.4460227 87.2133765,31.8068182 89.0184902,30.5284091 C90.8236038,29.25 92.2093993,27.3963068 93.1758765,24.9673295 C94.1423538,22.5383523 94.6255925,19.6056818 94.6255925,16.1693182 C94.6255925,12.7534091 94.1423538,9.83863636 93.1758765,7.425 C92.2093993,5.01136364 90.821047,3.17045455 89.0108197,1.90227273 C87.2005925,0.634090909 85.0375243,-4.26325641e-14 82.5216152,-4.26325641e-14 C80.0057061,-4.26325641e-14 77.8451947,0.634090909 76.0400811,1.90227273 C74.2349675,3.17045455 72.849172,5.00880682 71.8826947,7.41732955 C70.9162175,9.82585227 70.4278652,12.7431818 70.4176379,16.1693182 C70.4176379,19.5954545 70.9008765,22.5230114 71.8673538,24.9519886 C72.8338311,27.3809659 74.2196265,29.2372159 76.0247402,30.5207386 C77.8298538,31.8042614 79.9954788,32.4460227 82.5216152,32.4460227 Z M82.5216152,27.6443182 C81.2125243,27.6443182 80.0824106,27.2122159 79.1312743,26.3480114 C78.1801379,25.4838068 77.4463311,24.1977273 76.9298538,22.4897727 C76.4133765,20.7818182 76.1602515,18.675 76.1704788,16.1693182 C76.1807061,12.4261364 76.7534334,9.58551136 77.8886606,7.64744318 C79.0238879,5.709375 80.5682061,4.74034091 82.5216152,4.74034091 C83.8204788,4.74034091 84.9454788,5.17244318 85.8966152,6.03664773 C86.8477515,6.90085227 87.5841152,8.18181818 88.1057061,9.87954545 C88.627297,11.5772727 88.8880925,13.6738636 88.8880925,16.1693182 C88.8880925,19.9431818 88.317922,22.7991477 87.1775811,24.7372159 C86.0372402,26.6752841 84.4852515,27.6443182 82.5216152,27.6443182 Z M101.980135,32.1852273 C102.583544,32.1852273 103.138374,32.034375 103.644624,31.7326705 C104.150874,31.4309659 104.559965,31.0244318 104.871897,30.5130682 C105.183828,30.0017045 105.344908,29.4340909 105.355135,28.8102273 C105.344908,27.8897727 105.004851,27.1022727 104.334965,26.4477273 C103.665078,25.7931818 102.880135,25.4659091 101.980135,25.4659091 C101.049453,25.4659091 100.251726,25.7931818 99.5869533,26.4477273 C98.9221806,27.1022727 98.5949079,27.8897727 98.6051351,28.8102273 C98.5949079,29.7511364 98.9221806,30.5488636 99.5869533,31.2034091 C100.251726,31.8579545 101.049453,32.1852273 101.980135,32.1852273 Z" id="20."></path>
                <path d="M8.31372403,84.5340909 C9.88190585,84.5340909 11.2728149,84.2681818 12.4864513,83.7363636 C13.7000877,83.2045455 14.6529286,82.475 15.344974,81.5477273 C16.0370195,80.6204545 16.3796331,79.5602273 16.3730116,78.3670455 C16.3796331,77.0647727 15.9790649,75.9789773 15.1711104,75.1096591 C14.3631559,74.2403409 13.188724,73.7068182 11.6478149,73.5090909 L11.6478149,73.5090909 L11.6478149,73.3454545 C12.8205422,73.1340909 13.7733831,72.6363636 14.5063377,71.8522727 C15.2392922,71.0681818 15.6023604,70.0897727 15.5955422,68.9170455 C15.6023604,67.8125 15.3040649,66.8153409 14.7006559,65.9255682 C14.0972468,65.0357955 13.2534968,64.3284091 12.1694059,63.8034091 C11.0853149,63.2784091 9.82054221,63.0159091 8.37508767,63.0159091 C6.94326949,63.0159091 5.65974676,63.2767045 4.52451949,63.7982955 C3.38929221,64.3198864 2.48758767,65.0409091 1.81940585,65.9613636 C1.15122403,66.8818182 0.80690585,67.9454545 0.786451305,69.1522727 L0.786451305,69.1522727 L5.03076949,69.1522727 C5.05122403,68.6204545 5.21145131,68.1568182 5.51145131,67.7613636 C5.81145131,67.3659091 6.21031494,67.0607955 6.70804221,66.8460227 C7.20576949,66.63125 7.75463312,66.5238636 8.35463312,66.5238636 C8.94781494,66.5238636 9.46770131,66.6363636 9.91429221,66.8613636 C10.3608831,67.0863636 10.7086104,67.3982955 10.957474,67.7971591 C11.2063377,68.1960227 11.3307695,68.6579545 11.3307695,69.1829545 C11.3307695,69.7352273 11.1875877,70.2176136 10.901224,70.6301136 C10.6148604,71.0426136 10.2142922,71.3647727 9.69951949,71.5965909 C9.18474676,71.8284091 8.59326949,71.9443182 7.92508767,71.9443182 L7.92508767,71.9443182 L5.97167858,71.9443182 L5.97167858,75.1965909 L7.92508767,75.1965909 C8.71599676,75.1965909 9.39951949,75.3193182 9.97565585,75.5647727 C10.5517922,75.8102273 10.994974,76.1494318 11.3052013,76.5823864 C11.6154286,77.0153409 11.7705422,77.5113636 11.7705422,78.0704545 C11.7705422,78.6227273 11.6239513,79.1102273 11.3307695,79.5329545 C11.0375877,79.9556818 10.6319059,80.2863636 10.113724,80.525 C9.59554221,80.7636364 8.99895131,80.8829545 8.32395131,80.8829545 C7.67622403,80.8829545 7.09326949,80.7772727 6.57508767,80.5659091 C6.05690585,80.3545455 5.64270131,80.05625 5.33247403,79.6710227 C5.02224676,79.2857955 4.85349676,78.8375 4.82622403,78.3261364 L4.82622403,78.3261364 L0.367133123,78.3261364 C0.387587669,79.5465909 0.740428578,80.6221591 1.42565585,81.5528409 C2.11088312,82.4835227 3.04838312,83.2130682 4.23815585,83.7414773 C5.42792858,84.2698864 6.78645131,84.5340909 8.31372403,84.5340909 Z M28.6741516,84.2477273 L28.6741516,63.3022727 L24.5116516,63.3022727 L19.3264243,66.5852273 L19.3264243,70.5125 L24.1230152,67.5056818 L24.2457425,67.5056818 L24.2457425,84.2477273 L28.6741516,84.2477273 Z M42.0779863,63.3022727 L33.3336681,77.0784091 L33.3336681,80.5659091 L43.3861002,80.5667273 L43.3870772,84.2477273 L47.6211681,84.2477273 L47.6211002,80.5667273 L50.2188954,80.5659091 L50.2188954,77.0170455 L47.6211002,77.0177273 L47.6211681,63.3022727 L43.4688954,63.3022727 L42.0779863,63.3022727 Z M43.4681002,68.1297273 L43.4681002,77.0177273 L37.792759,77.0170455 L37.792759,76.8534091 L43.305259,68.1295455 L43.4681002,68.1297273 Z M69.9636841,84.2477273 L69.9636841,66.9534091 L76.3761841,66.9534091 L76.3761841,63.3022727 L59.1739114,63.3022727 L59.1739114,66.9534091 L65.5864114,66.9534091 L65.5864114,84.2477273 L69.9636841,84.2477273 Z M80.2563804,84.2477273 L81.8101002,79.4717273 L89.3721002,79.4717273 L90.9234258,84.2477273 L95.6688804,84.2477273 L88.4484258,63.3022727 L82.7416077,63.3022727 L75.5109258,84.2477273 L80.2563804,84.2477273 Z M88.2501002,76.0157273 L82.9341002,76.0157273 L85.5131986,68.0886364 L85.6768349,68.0886364 L88.2501002,76.0157273 Z M102.609024,84.2477273 L102.609024,78.2954545 L104.787433,75.6363636 L110.524933,84.2477273 L115.82266,84.2477273 L107.957887,72.6806818 L115.730615,63.3022727 L110.42266,63.3022727 L102.88516,72.5375 L102.609024,72.5375 L102.609024,63.3022727 L98.1806147,63.3022727 L98.1806147,84.2477273 L102.609024,84.2477273 Z M122.466253,84.2477273 L122.466253,63.3022727 L118.037843,63.3022727 L118.037843,84.2477273 L122.466253,84.2477273 Z M130.408734,84.2477273 L130.408734,70.5636364 L130.582597,70.5636364 L136.003052,84.1454545 L138.928052,84.1454545 L144.348506,70.6147727 L144.52237,70.6147727 L144.52237,84.2477273 L148.817824,84.2477273 L148.817824,63.3022727 L143.356461,63.3022727 L137.588279,77.375 L137.342824,77.375 L131.574643,63.3022727 L126.113279,63.3022727 L126.113279,84.2477273 L130.408734,84.2477273 Z M4.74545455,119.247727 L6.29910019,114.471727 L13.8611002,114.471727 L15.4125,119.247727 L20.1579545,119.247727 L12.9375,98.3022727 L7.23068182,98.3022727 L2.27373675e-13,119.247727 L4.74545455,119.247727 Z M12.7391002,111.015727 L7.42310019,111.015727 L10.0022727,103.088636 L10.1659091,103.088636 L12.7391002,111.015727 Z M27.0980979,119.247727 L27.0971002,111.822727 L30.3291002,111.822727 L34.2980979,119.247727 L39.1867343,119.247727 L34.7421002,111.111727 L34.9373025,111.025 C35.9779275,110.5375 36.7936827,109.853776 37.3845681,108.973828 L37.5401434,108.728977 C38.1401434,107.730114 38.4401434,106.535227 38.4401434,105.144318 C38.4401434,103.760227 38.145257,102.555114 37.5554843,101.528977 C36.9657116,100.502841 36.1100297,99.7085227 34.9884388,99.1460227 C33.8668479,98.5835227 32.5151434,98.3022727 30.9333252,98.3022727 L30.9333252,98.3022727 L22.6696888,98.3022727 L22.6696888,119.247727 L27.0980979,119.247727 Z M27.0980979,101.922727 L30.0844616,101.922727 C30.9367343,101.922727 31.6441206,102.047159 32.2066206,102.296023 C32.7691206,102.544886 33.1884388,102.907955 33.4645752,103.385227 C33.7407116,103.8625 33.8787797,104.448864 33.8787797,105.144318 C33.8787797,105.832955 33.7407116,106.409091 33.4645752,106.872727 C33.1884388,107.336364 32.7708252,107.684091 32.2117343,107.915909 C31.6526434,108.147727 30.9503706,108.263636 30.1049161,108.263636 L30.1049161,108.263636 L27.0971002,108.263727 L27.0980979,101.922727 Z M45.1798961,119.247727 L46.7331002,114.471727 L54.2951002,114.471727 L55.8469416,119.247727 L60.5923961,119.247727 L53.3719416,98.3022727 L47.6651234,98.3022727 L40.4344416,119.247727 L45.1798961,119.247727 Z M53.1731002,111.015727 L47.8571002,111.015727 L50.4367143,103.088636 L50.6003507,103.088636 L53.1731002,111.015727 Z M70.3757213,119.544318 C72.0802668,119.544318 73.5376531,119.286932 74.7478804,118.772159 C75.9581077,118.257386 76.8853804,117.53125 77.5296986,116.59375 C78.1740168,115.65625 78.499585,114.546591 78.5064031,113.264773 C78.499585,112.392045 78.3410622,111.618182 78.030835,110.943182 C77.7206077,110.268182 77.2859486,109.681818 76.7268577,109.184091 C76.1677668,108.686364 75.5064031,108.267045 74.7427668,107.926136 C73.9791304,107.585227 73.1404941,107.3125 72.2268577,107.107955 L72.2268577,107.107955 L70.3450395,106.657955 C69.8882213,106.555682 69.4586759,106.43125 69.0564031,106.284659 C68.6541304,106.138068 68.299585,105.964205 67.9927668,105.763068 C67.6859486,105.561932 67.4456077,105.321591 67.2717441,105.042045 C67.0978804,104.7625 67.0177668,104.435227 67.0314031,104.060227 C67.0314031,103.610227 67.1626531,103.207955 67.4251531,102.853409 C67.6876531,102.498864 68.0677668,102.221023 68.5654941,102.019886 C69.0632213,101.81875 69.6734486,101.718182 70.3961759,101.718182 C71.4598122,101.718182 72.3018577,101.946591 72.9223122,102.403409 C73.5427668,102.860227 73.8939031,103.501136 73.9757213,104.326136 L73.9757213,104.326136 L78.2200395,104.326136 C78.199585,103.078409 77.8654941,101.980682 77.2177668,101.032955 C76.5700395,100.085227 75.6649259,99.3454545 74.5024259,98.8136364 C73.3399259,98.2818182 71.9814031,98.0159091 70.4268577,98.0159091 C68.899585,98.0159091 67.5359486,98.2818182 66.3359486,98.8136364 C65.1359486,99.3454545 64.193335,100.085227 63.5081077,101.032955 C62.8228804,101.980682 62.4836759,103.088636 62.4904941,104.356818 C62.4836759,105.904545 62.9916304,107.135227 64.0143577,108.048864 C65.037085,108.9625 66.4314031,109.634091 68.1973122,110.063636 L68.1973122,110.063636 L70.4779941,110.636364 C71.2416304,110.820455 71.8876531,111.025 72.4160622,111.25 C72.9444713,111.475 73.3467441,111.747727 73.6228804,112.068182 C73.8990168,112.388636 74.037085,112.784091 74.037085,113.254545 C74.037085,113.759091 73.8836759,114.205682 73.5768577,114.594318 C73.2700395,114.982955 72.8387895,115.286364 72.2831077,115.504545 C71.7274259,115.722727 71.074585,115.831818 70.324585,115.831818 C69.5609486,115.831818 68.8774259,115.714205 68.2740168,115.478977 C67.6706077,115.24375 67.1899259,114.892614 66.8319713,114.425568 C66.4740168,113.958523 66.2711759,113.373864 66.2234486,112.671591 L66.2234486,112.671591 L61.9382213,112.671591 C61.9723122,114.178409 62.3387895,115.441477 63.0376531,116.460795 C63.7365168,117.480114 64.7115168,118.248864 65.9626531,118.767045 C67.2137895,119.285227 68.6848122,119.544318 70.3757213,119.544318 Z M85.9007013,119.247727 L85.9007013,98.3022727 L81.4722923,98.3022727 L81.4722923,119.247727 L85.9007013,119.247727 Z M93.9761369,119.247727 L93.9761369,106.064773 L94.129546,106.064773 L103.242046,119.247727 L107.067046,119.247727 L107.067046,98.3022727 L102.659091,98.3022727 L102.659091,111.475 L102.475001,111.475 L93.4340915,98.3022727 L89.5477278,98.3022727 L89.5477278,119.247727 L93.9761369,119.247727 Z M118.139112,119.247727 C120.266385,119.247727 122.095362,118.828409 123.626044,117.989773 C125.156726,117.151136 126.332862,115.947727 127.154453,114.379545 C127.976044,112.811364 128.38684,110.936364 128.38684,108.754545 C128.38684,106.579545 127.976044,104.711364 127.154453,103.15 C126.332862,101.588636 125.16184,100.390341 123.641385,99.5551136 C122.120931,98.7198864 120.307294,98.3022727 118.200476,98.3022727 L118.200476,98.3022727 L110.714112,98.3022727 L110.714112,119.247727 L118.139112,119.247727 Z M117.955022,115.453409 L115.142522,115.453409 L115.142522,102.096591 L117.965249,102.096591 C119.27434,102.096591 120.375476,102.328409 121.268658,102.792045 C122.16184,103.255682 122.835135,103.978409 123.288544,104.960227 C123.741953,105.942045 123.968658,107.206818 123.968658,108.754545 C123.968658,110.315909 123.741953,111.589205 123.288544,112.574432 C122.835135,113.559659 122.160135,114.285795 121.263544,114.752841 C120.366953,115.219886 119.264112,115.453409 117.955022,115.453409 L117.955022,115.453409 Z M134.093648,119.247727 L135.6471,114.471727 L143.2091,114.471727 L144.760693,119.247727 L149.506148,119.247727 L142.285693,98.3022727 L136.578875,98.3022727 L129.348193,119.247727 L134.093648,119.247727 Z M142.0871,111.015727 L136.7711,111.015727 L139.350466,103.088636 L139.514102,103.088636 L142.0871,111.015727 Z" id="314TAKIMARASINDA" fill-opacity="0.84"></path>
            </g>
            <g id="İHA-ODAK-ALANI" transform="translate(554.985592, 46.208523)">
                <path d="M56.620007,6.02897727 C57.4995525,6.02897727 58.2538139,5.73494318 58.8827911,5.146875 C59.5117684,4.55880682 59.826257,3.85056818 59.826257,3.02215909 C59.826257,2.18352273 59.5117684,1.47017045 58.8827911,0.882102273 C58.2538139,0.294034091 57.4995525,2.13162821e-14 56.620007,2.13162821e-14 C55.7404616,2.13162821e-14 54.9836434,0.294034091 54.3495525,0.882102273 C53.7154616,1.47017045 53.3984161,2.18352273 53.3984161,3.02215909 C53.3984161,3.85056818 53.7129048,4.55880682 54.341882,5.146875 C54.9708593,5.73494318 55.7302343,6.02897727 56.620007,6.02897727 Z M59.4580752,40.7914773 L59.4580752,9.37329545 L53.766598,9.37329545 L53.766598,40.7914773 L59.4580752,40.7914773 Z M71.3381037,40.7914773 L71.3381037,27.4448864 L85.8966264,27.4448864 L85.8966264,40.7914773 L91.6034446,40.7914773 L91.6034446,9.37329545 L85.8966264,9.37329545 L85.8966264,22.6738636 L71.3381037,22.6738636 L71.3381037,9.37329545 L65.6466264,9.37329545 L65.6466264,40.7914773 L71.3381037,40.7914773 Z M101.823569,40.7914773 L104.421408,33.0444773 L116.233408,33.0444773 L118.836637,40.7914773 L124.911637,40.7914773 L113.835501,9.37329545 L106.809364,9.37329545 L95.7485687,40.7914773 L101.823569,40.7914773 Z M114.697408,28.4734773 L105.954408,28.4734773 L110.199705,15.8164773 L110.44516,15.8164773 L114.697408,28.4734773 Z" id="İHA"></path>
                <path d="M9.80795455,93.4778409 C11.6556818,93.4778409 13.3210227,93.0568182 14.8039773,92.2147727 C16.2869318,91.3727273 17.4596591,90.1505682 18.3221591,88.5482955 C19.1846591,86.9460227 19.6159091,85.0028409 19.6159091,82.71875 C19.6159091,80.4346591 19.1846591,78.4914773 18.3221591,76.8892045 C17.4596591,75.2869318 16.2869318,74.0647727 14.8039773,73.2227273 C13.3210227,72.3806818 11.6556818,71.9596591 9.80795455,71.9596591 C7.94659091,71.9596591 6.27613636,72.3806818 4.79659091,73.2227273 C3.31704545,74.0647727 2.14772727,75.2869318 1.28863636,76.8892045 C0.429545455,78.4914773 -1.70530257e-13,80.4346591 -1.70530257e-13,82.71875 C-1.70530257e-13,84.9960227 0.429545455,86.9357955 1.28863636,88.5380682 C2.14772727,90.1403409 3.31704545,91.3642045 4.79659091,92.2096591 C6.27613636,93.0551136 7.94659091,93.4778409 9.80795455,93.4778409 Z M9.80795455,89.5607955 C8.7375,89.5607955 7.80340909,89.2982955 7.00568182,88.7732955 C6.20795455,88.2482955 5.58920455,87.4778409 5.14943182,86.4619318 C4.70965909,85.4460227 4.48977273,84.1982955 4.48977273,82.71875 C4.48977273,81.2392045 4.70965909,79.9914773 5.14943182,78.9755682 C5.58920455,77.9596591 6.20795455,77.1892045 7.00568182,76.6642045 C7.80340909,76.1392045 8.7375,75.8767045 9.80795455,75.8767045 C10.8784091,75.8767045 11.8125,76.1392045 12.6102273,76.6642045 C13.4079545,77.1892045 14.0267045,77.9596591 14.4664773,78.9755682 C14.90625,79.9914773 15.1261364,81.2392045 15.1261364,82.71875 C15.1261364,84.1982955 14.90625,85.4460227 14.4664773,86.4619318 C14.0267045,87.4778409 13.4079545,88.2482955 12.6102273,88.7732955 C11.8125,89.2982955 10.8784091,89.5607955 9.80795455,89.5607955 Z M30.3095215,93.1914773 C32.4367942,93.1914773 34.2657715,92.7721591 35.7964533,91.9335227 C37.3271351,91.0948864 38.5032715,89.8914773 39.3248624,88.3232955 C40.1464533,86.7551136 40.5572488,84.8801136 40.5572488,82.6982955 C40.5572488,80.5232955 40.1464533,78.6551136 39.3248624,77.09375 C38.5032715,75.5323864 37.3322488,74.3340909 35.8117942,73.4988636 C34.2913397,72.6636364 32.4777033,72.2460227 30.3708851,72.2460227 L30.3708851,72.2460227 L22.8845215,72.2460227 L22.8845215,93.1914773 L30.3095215,93.1914773 Z M30.1254306,89.3971591 L27.3129306,89.3971591 L27.3129306,76.0403409 L30.1356578,76.0403409 C31.4447488,76.0403409 32.5458851,76.2721591 33.4390669,76.7357955 C34.3322488,77.1994318 35.0055442,77.9221591 35.4589533,78.9039773 C35.9123624,79.8857955 36.1390669,81.1505682 36.1390669,82.6982955 C36.1390669,84.2596591 35.9123624,85.5329545 35.4589533,86.5181818 C35.0055442,87.5034091 34.3305442,88.2295455 33.4339533,88.6965909 C32.5373624,89.1636364 31.4345215,89.3971591 30.1254306,89.3971591 L30.1254306,89.3971591 Z M46.264057,93.1914773 L47.8174076,88.4154773 L55.3794076,88.4154773 L56.9311024,93.1914773 L61.676557,93.1914773 L54.4561024,72.2460227 L48.7492842,72.2460227 L41.5186024,93.1914773 L46.264057,93.1914773 Z M54.2574076,84.9594773 L48.9414076,84.9594773 L51.5208751,77.0323864 L51.6845115,77.0323864 L54.2574076,84.9594773 Z M68.6167003,93.1914773 L68.6167003,87.2392045 L70.7951094,84.5801136 L76.5326094,93.1914773 L81.8303367,93.1914773 L73.965564,81.6244318 L81.7382912,72.2460227 L76.4303367,72.2460227 L68.8928367,81.48125 L68.6167003,81.48125 L68.6167003,72.2460227 L64.1882912,72.2460227 L64.1882912,93.1914773 L68.6167003,93.1914773 Z M94.3321689,93.1914773 L95.8854076,88.4154773 L103.447408,88.4154773 L104.999214,93.1914773 L109.744669,93.1914773 L102.524214,72.2460227 L96.8173961,72.2460227 L89.5867143,93.1914773 L94.3321689,93.1914773 Z M102.325408,84.9594773 L97.0094076,84.9594773 L99.588987,77.0323864 L99.7526234,77.0323864 L102.325408,84.9594773 Z M125.664358,93.1914773 L125.664358,89.5403409 L116.684812,89.5403409 L116.684812,72.2460227 L112.256403,72.2460227 L112.256403,93.1914773 L125.664358,93.1914773 Z M132.735488,93.1914773 L134.288408,88.4154773 L141.851408,88.4154773 L143.402534,93.1914773 L148.147988,93.1914773 L140.927534,72.2460227 L135.220715,72.2460227 L127.990034,93.1914773 L132.735488,93.1914773 Z M140.729408,84.9594773 L135.413408,84.9594773 L137.992306,77.0323864 L138.155943,77.0323864 L140.729408,84.9594773 Z M155.088131,93.1914773 L155.088131,80.0085227 L155.241541,80.0085227 L164.354041,93.1914773 L168.179041,93.1914773 L168.179041,72.2460227 L163.771086,72.2460227 L163.771086,85.41875 L163.586995,85.41875 L154.546086,72.2460227 L150.659722,72.2460227 L150.659722,93.1914773 L155.088131,93.1914773 Z M176.254516,93.1914773 L176.254516,72.2460227 L171.826107,72.2460227 L171.826107,93.1914773 L176.254516,93.1914773 Z" id="ODAKALANI" fill-opacity="0.84"></path>
            </g>
            <rect id="Rectangle" x="232.54" y="0.36" width="2.88" height="190.8" rx="1.44"></rect>
            <rect id="Rectangle" x="505.42" y="0.36" width="2.88" height="190.8" rx="1.44"></rect>
        </g>
    </g>
</svg>